<svg width="200" height="35" viewBox="0 0 200 35" fill="none" xmlns="http://www.w3.org/2000/svg">
<g clip-path="url(#clip0_2242_2405)">
<path d="M144.709 25.66L140.421 18.6612H136.486V25.66H131.544V3.46216H140.446C146.06 3.46216 149.348 6.45986 149.348 11.0617C149.348 14.1151 147.91 16.4563 145.307 17.6827L150.433 25.6662H144.709V25.66ZM136.486 14.2762H140.23C142.833 14.2762 144.413 13.1613 144.413 11.0617C144.413 8.96207 142.84 7.84722 140.23 7.84722H136.486V14.2762Z" fill="#8B0C02"/>
<path d="M152.716 3.46222H156.837L167.879 16.8094V3.1897H172.82V25.3937H168.693L157.651 12.0465V25.6663H152.716V3.46222Z" fill="#8B0C02"/>
<path d="M176.731 3.46216H180.661L188.285 15.8803L195.91 3.46216H199.846V25.66H194.905V13.4834L189.778 22.012H186.793L181.666 13.4834V25.66H176.731V3.46216Z" fill="#8B0C02"/>
<path d="M36.3592 8.26855H29.8264V25.5301H36.3592V8.26855Z" fill="#0060A9"/>
<path d="M19.037 8.26855V15.1187H6.5328V8.26855H0V25.5301H6.5328V18.2526H19.037V25.5301H25.5637V8.26855H19.037Z" fill="#0060A9"/>
<path d="M97.4368 11.4087V8.26855H73.7115V25.5301H97.4368V22.3899H80.2443V18.3889H96.3018V15.2611H80.2443V11.4087H97.4368Z" fill="#0060A9"/>
<path d="M120.305 8.26855V19.9559L107.517 8.26855H100.984V25.5301H107.517V14.0843L120.305 25.5301H126.838V8.26855H120.305Z" fill="#0060A9"/>
<path d="M58.3696 11.26H62.6322V19.677H46.877V5.98301H61.929V3.56132H44.4588V22.1049H65.0566V8.83826H58.3757V11.26H58.3696ZM69.3069 23.2384V8.83826H66.8949V23.2446H42.602V2.4217H61.9228V0H40.19V25.6601H69.3131V23.2384H69.3069Z" fill="#0060A9"/>
<path d="M134.721 34.876L133.778 33.2409H132.914V34.876H131.828V29.6858H133.784C135.017 29.6858 135.739 30.3857 135.739 31.4634C135.739 32.1756 135.425 32.7268 134.851 33.0118L135.98 34.876H134.721ZM132.914 32.2128H133.734C134.308 32.2128 134.653 31.9526 134.653 31.4634C134.653 30.9741 134.308 30.7139 133.734 30.7139H132.914V32.219V32.2128Z" fill="#404041"/>
<path d="M136.301 32.2747C136.301 30.7016 137.417 29.5496 138.929 29.5496C140.44 29.5496 141.556 30.7016 141.556 32.2747C141.556 33.8479 140.44 34.9999 138.929 34.9999C137.417 34.9999 136.301 33.8479 136.301 32.2747ZM140.465 32.2747C140.465 31.2962 139.811 30.5963 138.922 30.5963C138.034 30.5963 137.38 31.2962 137.38 32.2747C137.38 33.2533 138.034 33.9532 138.922 33.9532C139.811 33.9532 140.465 33.2471 140.465 32.2747Z" fill="#404041"/>
<path d="M142.284 29.6858H144.394C145.474 29.6858 146.084 30.2866 146.084 31.2342C146.084 31.6058 145.85 32.027 145.517 32.157C145.979 32.3181 146.313 32.8012 146.313 33.3028C146.313 34.2629 145.671 34.876 144.573 34.876H142.284V29.6858ZM144.351 31.7854C144.764 31.7854 144.999 31.5934 144.999 31.2342C144.999 30.875 144.758 30.6706 144.351 30.6706H143.37V31.7854H144.351ZM144.53 33.885C144.962 33.885 145.227 33.6807 145.227 33.2967C145.227 32.9127 144.955 32.7083 144.53 32.7083H143.37V33.8789H144.53V33.885Z" fill="#404041"/>
<path d="M146.825 32.2747C146.825 30.7016 147.941 29.5496 149.453 29.5496C150.964 29.5496 152.08 30.7016 152.08 32.2747C152.08 33.8479 150.964 34.9999 149.453 34.9999C147.941 34.9999 146.825 33.8479 146.825 32.2747ZM150.989 32.2747C150.989 31.2962 150.335 30.5963 149.446 30.5963C148.558 30.5963 147.904 31.2962 147.904 32.2747C147.904 33.2533 148.558 33.9532 149.446 33.9532C150.335 33.9532 150.989 33.2471 150.989 32.2747Z" fill="#404041"/>
<path d="M156.559 30.7078H154.98V34.8761H153.894V30.7078H152.315V29.6797H156.565V30.7078H156.559Z" fill="#404041"/>
<path d="M158.996 29.6857H159.903L162.333 32.8073V29.6238H163.419V34.814H162.512L160.081 31.6924V34.8759H158.996V29.6857Z" fill="#8B0C02"/>
<path d="M166.121 29.6858H166.984L168.662 32.5906L170.34 29.6858H171.204V34.876H170.118V32.027L168.989 34.0213H168.335L167.206 32.027V34.876H166.121V29.6858Z" fill="#404041"/>
<path d="M171.938 32.2747C171.938 30.7016 173.055 29.5496 174.566 29.5496C176.077 29.5496 177.194 30.7016 177.194 32.2747C177.194 33.8479 176.077 34.9999 174.566 34.9999C173.055 34.9999 171.938 33.8479 171.938 32.2747ZM176.102 32.2747C176.102 31.2962 175.448 30.5963 174.56 30.5963C173.671 30.5963 173.018 31.2962 173.018 32.2747C173.018 33.2533 173.671 33.9532 174.56 33.9532C175.448 33.9532 176.102 33.2471 176.102 32.2747Z" fill="#404041"/>
<path d="M177.922 29.6858H180.031C181.111 29.6858 181.722 30.2866 181.722 31.2342C181.722 31.6058 181.487 32.027 181.154 32.157C181.617 32.3181 181.95 32.8012 181.95 33.3028C181.95 34.2629 181.308 34.876 180.21 34.876H177.922V29.6858ZM179.988 31.7854C180.402 31.7854 180.636 31.5934 180.636 31.2342C180.636 30.875 180.395 30.6706 179.988 30.6706H179.007V31.7854H179.988ZM180.167 33.885C180.599 33.885 180.864 33.6807 180.864 33.2967C180.864 32.9127 180.593 32.7083 180.167 32.7083H179.007V33.8789H180.167V33.885Z" fill="#404041"/>
<path d="M183.764 29.6858V34.876H182.678V29.6858H183.764Z" fill="#404041"/>
<path d="M185.799 29.6858V33.8541H188.23V34.8822H184.714V29.692H185.799V29.6858Z" fill="#404041"/>
<path d="M189.951 29.6858V34.876H188.865V29.6858H189.951Z" fill="#404041"/>
<path d="M194.874 30.7078H193.294V34.8761H192.209V30.7078H190.63V29.6797H194.88V30.7078H194.874Z" fill="#404041"/>
<path d="M198.18 33.2471V34.876H197.095V33.2471L195.275 29.6858H196.515L197.687 32.1385L198.853 29.6858H200.006L198.186 33.2471H198.18Z" fill="#404041"/>
</g>
<defs>
<clipPath id="clip0_2242_2405">
<rect width="200" height="35" fill="white"/>
</clipPath>
</defs>
</svg>
