<svg  xmlns="http://www.w3.org/2000/svg" viewBox="0 0 1000 1000">
	<path d="M779.7,483.4c-14.4,0-26.2,11.7-26.2,26.2V717c0,20.1-16.3,36.4-36.4,36.4H283.5c-20.1,0-36.4-16.3-36.4-36.4V283.4 c0-20.1,16.3-36.4,36.4-36.4h207.4c14.4,0,26.2-11.7,26.2-26.2c0-14.4-11.7-26.2-26.2-26.2H283.5c-49,0-88.8,39.8-88.8,88.8V717 c0,49,39.8,88.8,88.8,88.8h433.6c49,0,88.8-39.8,88.8-88.8V509.6C805.9,495.2,794.2,483.4,779.7,483.4z" fill="#fff"/>
	<path d="M776.5,194.2H629.2c-6.9,0-13.4,2.7-18.4,7.5c-4.9,4.8-7.7,11.3-7.8,18.2c-0.1,7,2.5,13.6,7.5,18.6c5,5.1,12,8.1,19.1,8.1 H717L482.1,482c-10.2,10.2-10.2,26.8,0,37c4.9,4.9,11.5,7.6,18.5,7.6c7,0,13.6-2.7,18.5-7.7l234.7-235.3v95.9 c0,6.9,2.7,13.4,7.5,18.4c4.8,4.9,11.3,7.7,18.2,7.8c7,0.1,13.6-2.5,18.6-7.5c5.1-5,8.1-12,8.1-19.1V224 C806.3,207.6,792.9,194.2,776.5,194.2z" fill="#fff"/>
</svg>
